# xmcd
# 
# Track frame offsets:
#     150
#     19673
#     37350
#     58974
#     76217
#     94206
#     110639
#     130060
#     150318
#     170638
#     188056
#     207671
# 
# Disc length: 2973
# 
# Revision: 2
# Processed by: cddbd v1.5.2PL0 Copyright (c) Steve Scherf et al.
# Submitted via: fre:ac v1.0.27
# 
DISCID=a70b9b0c
DTITLE=The Bittersweets - Goodnight, San Francisco
DYEAR=2008
DGENRE=IRE/UK Folk
TTITLE0=Wreck
TTITLE1=Blue
TTITLE2=Is Anyone Safe?
TTITLE3=Birmingham
TTITLE4=45
TTITLE5=My Sweet Love
TTITLE6=Bordertown
TTITLE7=Tidal Waves
TTITLE8=Lies
TTITLE9=Goodnight, San Francisco
TTITLE10=When the War is Over
TTITLE11=Fortunate Wind
EXTD=
EXTT0=
EXTT1=
EXTT2=
EXTT3=
EXTT4=
EXTT5=
EXTT6=
EXTT7=
EXTT8=
EXTT9=
EXTT10=
EXTT11=
PLAYORDER=
